HIERARCHY
ROOT Hips
{
 OFFSET 0.000000 0.000000 0.000000
 CHANNELS 6 Xposition Yposition Zposition Yrotation Xrotation Zrotation
 JOINT Chest
 {
  OFFSET 0.000000 9.585900 0.002600
  CHANNELS 3 Yrotation Xrotation Zrotation
  JOINT Chest2
  {
   OFFSET 0.000000 9.601200 -0.005300
   CHANNELS 3 Yrotation Xrotation Zrotation
   JOINT Chest3
   {
    OFFSET 0.000000 9.561800 0.000000
    CHANNELS 3 Yrotation Xrotation Zrotation
    JOINT Chest4
    {
     OFFSET 0.000000 9.552100 0.000000
     CHANNELS 3 Yrotation Xrotation Zrotation
     JOINT Neck
     {
      OFFSET 0.000000 14.453000 0.000000
      CHANNELS 3 Yrotation Xrotation Zrotation
      JOINT Head
      {
       OFFSET 0.000000 8.936500 -0.011300
       CHANNELS 3 Yrotation Xrotation Zrotation
       End Site
       {
        OFFSET 0.000000 17.073600 -0.006000
       }
      }
     }
     JOINT RightCollar
     {
      OFFSET -2.921100 9.558500 0.000000
      CHANNELS 3 Yrotation Xrotation Zrotation
      JOINT RightShoulder
      {
       OFFSET -13.519700 0.000000 0.000000
       CHANNELS 3 Yrotation Xrotation Zrotation
       JOINT RightElbow
       {
        OFFSET 0.000000 -29.696600 0.000000
        CHANNELS 3 Yrotation Xrotation Zrotation
        JOINT RightWrist
        {
         OFFSET 0.000000 -24.004700 0.000000
         CHANNELS 3 Yrotation Xrotation Zrotation
         End Site
         {
          OFFSET 0.000000 -17.728500 0.000000
         }
        }
       }
      }
     }
     JOINT LeftCollar
     {
      OFFSET 2.921100 9.558500 0.000000
      CHANNELS 3 Yrotation Xrotation Zrotation
      JOINT LeftShoulder
      {
       OFFSET 13.519700 0.000000 0.000000
       CHANNELS 3 Yrotation Xrotation Zrotation
       JOINT LeftElbow
       {
        OFFSET 0.000000 -29.696600 0.000000
        CHANNELS 3 Yrotation Xrotation Zrotation
        JOINT LeftWrist
        {
         OFFSET 0.000000 -24.004700 0.000000
         CHANNELS 3 Yrotation Xrotation Zrotation
         End Site
         {
          OFFSET 0.000000 -17.728500 0.000000
         }
        }
       }
      }
     }
    }
   }
  }
 }
 JOINT RightHip
 {
  OFFSET -7.771700 -0.012900 -0.001300
  CHANNELS 3 Yrotation Xrotation Zrotation
  JOINT RightKnee
  {
   OFFSET 0.000000 -40.869800 0.001200
   CHANNELS 3 Yrotation Xrotation Zrotation
   JOINT RightAnkle
   {
    OFFSET 0.000000 -39.717900 0.002100
    CHANNELS 3 Yrotation Xrotation Zrotation
    JOINT RightToe
    {
     OFFSET 0.000000 -4.965400 11.033500
     CHANNELS 3 Yrotation Xrotation Zrotation
     End Site
     {
      OFFSET 0.000000 -1.423100 5.872300
     }
    }
   }
  }
 }
 JOINT LeftHip
 {
  OFFSET 7.771700 -0.012900 -0.001300
  CHANNELS 3 Yrotation Xrotation Zrotation
  JOINT LeftKnee
  {
   OFFSET 0.000000 -40.869800 0.001200
   CHANNELS 3 Yrotation Xrotation Zrotation
   JOINT LeftAnkle
   {
    OFFSET 0.000000 -39.717900 0.002100
    CHANNELS 3 Yrotation Xrotation Zrotation
    JOINT LeftToe
    {
     OFFSET 0.000000 -4.965400 11.033500
     CHANNELS 3 Yrotation Xrotation Zrotation
     End Site
     {
      OFFSET 0.000000 -1.423100 5.872300
     }
    }
   }
  }
 }
}
MOTION
Frames: 15
Frame Time: 0.008333
-42.108266 62.069371 13.213638 177.845044 -52.623088 -0.279705 3.483479 27.169740 0.770083 0.518183 4.683770 0.149520 0.836004 7.404536 0.250649 2.668630 22.023380 1.127680 0.551485 15.394807 3.832663 -0.352688 -7.131760 6.977452 5.848418 6.470398 6.124254 -2.312023 -11.127292 -14.578148 -94.052998 -49.643798 138.080652 -0.739329 -2.241432 -13.332428 -10.639924 3.725673 -2.060347 -4.202260 -10.115661 18.616592 105.429284 -62.280525 -135.573776 14.700054 -6.013765 1.304125 3.210814 -14.223278 -7.335418 -0.996631 61.215932 -5.107757 1.417910 -7.359426 10.584934 0.303093 -0.467186 0.161400 -4.010078 -11.475356 0.622625 26.502615 76.140081 27.147248 0.598708 -11.500443 -3.909768 0.242242 0.671731 0.111040
-42.108609 62.070045 13.211924 177.848466 -52.618712 -0.284485 3.474067 27.175839 0.773169 0.524144 4.674543 0.145374 0.831855 7.406822 0.253841 2.666982 22.023224 1.131177 0.561636 15.395996 3.832417 -0.328886 -7.122056 6.974082 5.854358 6.475442 6.123426 -2.322727 -11.120804 -14.556048 -94.062925 -49.662253 138.093544 -0.744961 -2.241587 -13.327987 -10.632278 3.728734 -2.057715 -4.187779 -10.119958 18.606157 105.421811 -62.289683 -135.574839 14.694621 -6.014608 1.309596 3.205786 -14.229595 -7.339637 -1.024156 61.222785 -5.120623 1.425861 -7.369245 10.571774 0.307559 -0.482459 0.160438 -4.016735 -11.480196 0.622324 26.527072 76.139691 27.171337 0.593020 -11.502174 -3.909474 0.246935 0.670787 0.108756
-42.108115 62.070092 13.210816 177.851174 -52.610897 -0.291877 3.473515 27.169198 0.778596 0.520229 4.678510 0.148173 0.831142 7.405874 0.254954 2.664718 22.024186 1.133864 0.574004 15.398137 3.832972 -0.304952 -7.110987 6.967935 5.872915 6.483535 6.128924 -2.337452 -11.133339 -14.562187 -94.056130 -49.662579 138.092382 -0.750278 -2.243082 -13.334864 -10.629424 3.726406 -2.054280 -4.173129 -10.116930 18.599382 105.413283 -62.292866 -135.568418 14.690720 -6.013990 1.312596 3.190501 -14.238600 -7.338377 -1.032275 61.225675 -5.124851 1.431532 -7.382522 10.562487 0.309330 -0.489837 0.156841 -4.024640 -11.489521 0.630168 26.537107 76.141891 27.176158 0.592449 -11.501741 -3.911341 0.245614 0.668748 0.111072
-42.107912 62.069750 13.210159 177.849498 -52.601169 -0.291903 3.471377 27.166351 0.779641 0.513361 4.684613 0.151943 0.836125 7.398472 0.252904 2.660407 22.026502 1.135817 0.588734 15.400332 3.833604 -0.289476 -7.105593 6.961287 5.883357 6.483612 6.124542 -2.347604 -11.140063 -14.557945 -94.024142 -49.643065 138.060553 -0.735911 -2.236271 -13.325473 -10.626877 3.722665 -2.048750 -4.164733 -10.121175 18.585916 105.390601 -62.304043 -135.540395 14.690530 -6.011799 1.308624 3.165331 -14.252534 -7.343645 -1.015350 61.229158 -5.113267 1.443579 -7.392204 10.553204 0.305391 -0.498372 0.150550 -4.026485 -11.499598 0.631560 26.560988 76.140453 27.200227 0.581991 -11.506414 -3.911480 0.251333 0.672253 0.109809
-42.106561 62.069367 13.209805 177.836968 -52.591965 -0.287926 3.467561 27.170307 0.783847 0.518731 4.679068 0.149742 0.835684 7.398134 0.253821 2.658489 22.028543 1.136359 0.611593 15.419278 3.841899 -0.271413 -7.109744 6.946609 5.890510 6.477589 6.116746 -2.360050 -11.138281 -14.534429 -93.999783 -49.647587 138.051932 -0.724643 -2.227740 -13.327779 -10.625341 3.718192 -2.038942 -4.153164 -10.127049 18.569210 105.360758 -62.313742 -135.506938 14.685929 -6.013832 1.321139 3.161599 -14.263454 -7.340913 -1.013170 61.230227 -5.110135 1.449207 -7.400680 10.550085 0.303886 -0.497862 0.145639 -4.024105 -11.508504 0.635566 26.579437 76.139662 27.221661 0.580165 -11.508824 -3.918577 0.251760 0.672481 0.111555
-42.104465 62.069782 13.209104 177.827096 -52.589635 -0.288314 3.469589 27.175904 0.791285 0.521909 4.675005 0.148711 0.825339 7.411968 0.259444 2.662257 22.020987 1.132236 0.621656 15.421501 3.838117 -0.235169 -7.087964 6.937015 5.908614 6.475905 6.116368 -2.372373 -11.146096 -14.539387 -93.974697 -49.639434 138.032576 -0.741745 -2.235917 -13.347208 -10.624237 3.714329 -2.030935 -4.134838 -10.131148 18.556283 105.347675 -62.313054 -135.501422 14.681844 -6.009214 1.346496 3.162271 -14.266171 -7.333227 -1.024902 61.230680 -5.116979 1.452157 -7.405283 10.546515 0.305007 -0.500333 0.143309 -4.025593 -11.510346 0.639507 26.608903 76.137813 27.252903 0.590529 -11.508305 -3.930868 0.259947 0.671673 0.115295
-42.102086 62.069576 13.209125 177.817662 -52.583329 -0.289178 3.472657 27.177006 0.800470 0.522631 4.671887 0.146116 0.824272 7.416931 0.263234 2.660875 22.022379 1.133865 0.634126 15.428346 3.834399 -0.227003 -7.091318 6.929542 5.920009 6.473575 6.118554 -2.379578 -11.144995 -14.541055 -93.956469 -49.639500 138.020393 -0.748601 -2.242119 -13.350121 -10.622954 3.710219 -2.019852 -4.120423 -10.135348 18.539112 105.338651 -62.312269 -135.497867 14.680816 -6.000036 1.368569 3.152311 -14.274032 -7.330219 -1.025659 61.228769 -5.110191 1.457553 -7.409885 10.534288 0.306550 -0.504396 0.140416 -4.028387 -11.515513 0.644504 26.636930 76.132859 27.285678 0.580820 -11.510006 -3.934351 0.263070 0.673914 0.110867
-42.100765 62.069059 13.209521 177.813107 -52.575365 -0.286483 3.470572 27.173966 0.802448 0.523442 4.675770 0.145753 0.824570 7.412955 0.262489 2.660029 22.023342 1.134808 0.647828 15.446293 3.837578 -0.220426 -7.100596 6.919635 5.922360 6.472394 6.114792 -2.371018 -11.141645 -14.531584 -93.939761 -49.644396 138.001361 -0.748201 -2.244291 -13.349521 -10.620583 3.706095 -2.018335 -4.107641 -10.135028 18.533563 105.284412 -62.335673 -135.449145 14.680390 -6.019818 1.377397 3.147368 -14.284148 -7.332453 -1.014710 61.231056 -5.099561 1.460891 -7.413230 10.534155 0.298677 -0.514606 0.134822 -4.032786 -11.523704 0.642345 26.638211 76.131157 27.290803 0.580867 -11.510394 -3.944350 0.268316 0.676029 0.114452
-42.099340 62.069350 13.209425 177.806622 -52.573941 -0.282232 3.472874 27.173886 0.803953 0.517914 4.681576 0.150861 0.827349 7.410626 0.259193 2.658968 22.024906 1.135843 0.657054 15.462744 3.837022 -0.193699 -7.092666 6.906487 5.928589 6.475820 6.117182 -2.361399 -11.138170 -14.522078 -93.935692 -49.659505 137.996703 -0.748787 -2.245100 -13.346493 -10.619542 3.704857 -2.012836 -4.095738 -10.137418 18.528847 105.274359 -62.332385 -135.444814 14.678271 -6.008615 1.394572 3.144156 -14.287409 -7.334928 -1.011224 61.234119 -5.092467 1.463603 -7.417022 10.531267 0.300469 -0.515738 0.130754 -4.034438 -11.525119 0.641680 26.651948 76.128669 27.305067 0.576966 -11.508800 -3.946065 0.267589 0.674935 0.113439
-42.097680 62.069489 13.209507 177.808433 -52.571559 -0.286154 3.467491 27.179028 0.809113 0.516966 4.683752 0.151018 0.826116 7.413731 0.259506 2.654435 22.029166 1.135859 0.668743 15.471344 3.830057 -0.138839 -7.045244 6.882426 5.936977 6.468587 6.112298 -2.355477 -11.140542 -14.522279 -93.922878 -49.664225 137.982621 -0.749326 -2.244305 -13.339347 -10.620937 3.704885 -1.998236 -4.083686 -10.153171 18.510088 105.265674 -62.334458 -135.434499 14.668573 -5.998120 1.419819 3.135902 -14.292260 -7.335459 -1.015812 61.238889 -5.090075 1.461535 -7.419293 10.528094 0.294886 -0.525650 0.128132 -4.037993 -11.527274 0.641059 26.653343 76.125392 27.315180 0.572094 -11.507910 -3.958916 0.279206 0.674894 0.121191
-42.096907 62.069377 13.209665 177.806717 -52.567916 -0.282810 3.450688 27.195135 0.799722 0.523002 4.676416 0.152160 0.826088 7.417213 0.259947 2.653776 22.033076 1.137288 0.679763 15.477096 3.821786 -0.129072 -7.050869 6.875914 5.949346 6.454480 6.104145 -2.357892 -11.140300 -14.519981 -93.907561 -49.667825 137.963250 -0.749183 -2.240508 -13.331406 -10.616325 3.694012 -1.993261 -4.083930 -10.157105 18.504791 105.247749 -62.344660 -135.416322 14.667789 -6.005387 1.427815 3.122089 -14.300458 -7.345494 -1.015580 61.245222 -5.082984 1.473530 -7.427172 10.518064 0.294275 -0.527059 0.125624 -4.043891 -11.532560 0.638515 26.666592 76.124223 27.326326 0.568350 -11.504563 -3.962295 0.280037 0.671613 0.122576
-42.094443 62.069796 13.209420 177.791698 -52.568229 -0.280229 3.457845 27.205265 0.805939 0.518575 4.686065 0.152007 0.830273 7.410756 0.261061 2.652432 22.036343 1.138138 0.690414 15.485292 3.815902 -0.119186 -7.055869 6.870258 5.958319 6.439749 6.097327 -2.360133 -11.140116 -14.518845 -93.881492 -49.669947 137.937216 -0.749603 -2.233501 -13.325011 -10.611529 3.689703 -1.984045 -4.084866 -10.165967 18.498631 105.231093 -62.353064 -135.400060 14.670275 -6.008087 1.432685 3.118873 -14.300358 -7.333922 -1.011306 61.245181 -5.080416 1.466429 -7.440496 10.513954 0.298786 -0.516585 0.124831 -4.040436 -11.528995 0.642770 26.666709 76.124488 27.334489 0.571546 -11.515507 -3.970802 0.282306 0.677081 0.123541
-42.092957 62.069601 13.209503 177.777180 -52.563904 -0.273949 3.463569 27.208815 0.807930 0.522348 4.680904 0.152609 0.821803 7.430085 0.260412 2.651213 22.040748 1.138317 0.703342 15.483527 3.810435 -0.093233 -7.043465 6.856490 5.975440 6.417060 6.089872 -2.355978 -11.130827 -14.514316 -93.875786 -49.678942 137.927078 -0.751010 -2.223878 -13.321603 -10.605126 3.672559 -1.976493 -4.081147 -10.175065 18.492478 105.167603 -62.381072 -135.333599 14.676251 -6.031897 1.417650 3.118267 -14.307169 -7.326820 -1.007047 61.247872 -5.080156 1.466050 -7.447846 10.510499 0.296112 -0.513644 0.125440 -4.038804 -11.531099 0.643667 26.686063 76.122029 27.353625 0.580399 -11.524111 -3.971521 0.273385 0.682367 0.119749
-42.092773 62.069821 13.209085 177.767234 -52.562946 -0.265278 3.467116 27.210603 0.805728 0.516664 4.691403 0.151834 0.825573 7.425108 0.260428 2.650803 22.042779 1.138084 0.710263 15.496418 3.808866 -0.044990 -6.996670 6.835937 5.987280 6.414277 6.083285 -2.352669 -11.129720 -14.507918 -93.871434 -49.685315 137.918111 -0.756139 -2.208047 -13.319452 -10.606529 3.668851 -1.971708 -4.077008 -10.175817 18.491698 105.143856 -62.391193 -135.307555 14.678980 -6.045300 1.410830 3.113882 -14.311067 -7.328443 -0.999859 61.252503 -5.075128 1.466106 -7.454945 10.502902 0.299837 -0.523227 0.130326 -4.037919 -11.529919 0.636043 26.714724 76.116244 27.381263 0.591706 -11.530783 -3.969912 0.258391 0.686853 0.114370
-42.090624 62.069365 13.209191 177.742432 -52.556856 -0.258575 3.479013 27.214957 0.814992 0.509360 4.700964 0.149773 0.825388 7.427775 0.260186 2.655125 22.035867 1.135748 0.721565 15.491278 3.804411 -0.017411 -6.975786 6.825161 5.998080 6.399588 6.076504 -2.344366 -11.119217 -14.502956 -93.863406 -49.698374 137.907396 -0.761094 -2.196778 -13.315760 -10.598357 3.654423 -1.971406 -4.070678 -10.171178 18.492018 105.119489 -62.399067 -135.292401 14.677913 -6.058534 1.410976 3.113082 -14.321244 -7.320720 -0.986177 61.253867 -5.056744 1.471623 -7.461574 10.493522 0.300323 -0.521984 0.128316 -4.029308 -11.532847 0.642488 26.734070 76.115879 27.408058 0.596274 -11.542917 -3.975439 0.257435 0.694141 0.110727
